<?xml version="1.0" standalone="no"?><!DOCTYPE svg PUBLIC "-//W3C//DTD SVG 1.1//EN" "http://www.w3.org/Graphics/SVG/1.1/DTD/svg11.dtd"><svg t="1682581961112" class="icon" viewBox="0 0 1024 1024" version="1.1" xmlns="http://www.w3.org/2000/svg" p-id="7148" xmlns:xlink="http://www.w3.org/1999/xlink" width="200" height="200"><path d="M930 855.8H131.9c-16.6 0-30-13.4-30-30V279.3c0-16.6 13.4-30 30-30s30 13.4 30 30v516.5H900v-523H422.6c-16.6 0-30-13.4-30-30s13.4-30 30-30H930c16.6 0 30 13.4 30 30v583c0 16.6-13.5 30-30 30z" p-id="7149" fill="#bfcbd9"></path><path d="M131.9 308.6c-16.6 0-30-13.4-30-30V130.1c0-16.6 13.4-30 30-30h217.8c10.9 0 21 5.9 26.3 15.5l46.5 97.1 41.5 0.1c16.6 0 30 13.5 29.9 30.1 0 16.5-13.5 29.9-30 29.9h-0.1l-59.2-0.1c-10.9 0-20.9-6-26.2-15.5L332 160.1H161.9v118.5c0 16.6-13.5 30-30 30z m642.7 358H517.1c-16.6 0-30-13.4-30-30s13.4-30 30-30h257.5c16.6 0 30 13.4 30 30s-13.5 30-30 30z" p-id="7150" fill="#bfcbd9"></path></svg>